<?xml version="1.0" encoding="UTF-8"?>
<svg version="1.1" xmlns="http://www.w3.org/2000/svg" width="512" height="512">
<path d="M0 0 C1.65504394 0.27333934 3.31024622 0.54572133 4.96559143 0.81723022 C8.51766035 1.40183376 12.06857439 1.99287039 15.61871338 2.58908081 C21.33118507 3.54834995 27.04600226 4.49310375 32.76123047 5.43579102 C39.80651823 6.59878186 46.8512394 7.76509812 53.89526749 8.93569469 C66.61398523 11.04897743 79.33683861 13.13599803 92.0625 15.20703125 C92.99766827 15.35923819 93.93283653 15.51144512 94.89634323 15.66826439 C98.67732895 16.28355656 102.45834344 16.89867137 106.23940468 17.51349926 C115.83756567 19.07426727 125.43492818 20.63991983 135.03226852 22.20572472 C152.38527413 25.03671389 169.73894116 27.86362896 187.09306145 30.68777657 C197.57849267 32.3941738 208.06357725 34.1026407 218.54760742 35.81762695 C221.38669335 36.28194394 224.22578362 36.74623443 227.06487846 37.2104969 C228.96103121 37.52057214 230.85717609 37.83069555 232.75331306 38.14086723 C244.84805864 40.11870911 256.94563185 42.07795889 269.04668903 44.016819 C277.51121966 45.37325145 285.97423569 46.73887057 294.43628216 48.11071396 C299.47248027 48.92660591 304.50937105 49.73746425 309.54837036 50.53588867 C314.23395341 51.27833037 318.91722513 52.03395108 323.59910965 52.79935837 C325.30673203 53.07611204 327.01513769 53.34808616 328.72437668 53.61467361 C342.73818263 55.80458868 355.33824478 58.62805038 366.15234375 68.46484375 C366.77753906 69.01011719 367.40273438 69.55539063 368.046875 70.1171875 C376.78970509 78.21240055 381.57934872 88.76748073 383.15234375 100.46484375 C383.21812377 102.92238516 383.23803537 105.38153153 383.21484375 107.83984375 C383.20582031 109.08507812 383.19679688 110.3303125 383.1875 111.61328125 C383.17009766 113.02480469 383.17009766 113.02480469 383.15234375 114.46484375 C373.11792342 115.34285553 363.21628622 115.58247425 353.15234375 115.46484375 C352.87261719 114.64242187 352.59289062 113.82 352.3046875 112.97265625 C349.52016042 105.21895705 346.22072904 98.94242962 341.15234375 92.46484375 C340.40984375 91.43359375 339.66734375 90.40234375 338.90234375 89.33984375 C327.22359387 77.13024161 311.46662762 70.65856218 294.65234375 70.08984375 C279.34383685 70.67089657 263.27799289 76.26248619 252.171875 87.15625 C238.67590818 102.58394128 233.86145137 119.15227253 235.15234375 139.46484375 C235.92720106 144.3303439 236.81953715 149.1704485 239.31640625 153.46875 C240.4930398 156.27837496 240.20218812 157.61588848 239.15234375 160.46484375 C236.9296875 162.89453125 236.9296875 162.89453125 234.08984375 165.33984375 C233.59105713 165.77546631 233.09227051 166.21108887 232.57836914 166.65991211 C231.11162664 167.93815758 229.63219548 169.20179826 228.15234375 170.46484375 C226.79688572 171.65086953 225.44255073 172.83818126 224.08984375 174.02734375 C223.46078125 174.57390625 222.83171875 175.12046875 222.18359375 175.68359375 C219.79811658 177.77547373 217.44390205 179.90018263 215.08984375 182.02734375 C213.82914062 183.15462891 213.82914062 183.15462891 212.54296875 184.3046875 C211.0541417 185.64998384 209.58195504 187.01422978 208.13671875 188.40625 C206.33984375 190.08984375 206.33984375 190.08984375 203.15234375 192.46484375 C198.80480842 192.14028816 194.93562194 190.21384081 190.96484375 188.52734375 C174.01828247 181.59857541 157.77657954 182.06626028 140.8203125 188.78515625 C132.52273414 192.68363338 124.45392723 197.84275888 119.15234375 205.46484375 C114.59081053 204.5863674 111.8510796 201.91355674 108.46484375 198.90234375 C107.60342773 198.15114258 107.60342773 198.15114258 106.72460938 197.38476562 C105.5185711 196.3303132 104.32474182 195.2617691 103.14208984 194.18115234 C101.13381392 192.38961554 101.13381392 192.38961554 98.69775391 190.75244141 C95.00038148 188.00754348 92.4954318 186.09064483 91.51879883 181.46264648 C91.44516545 177.9264358 91.62655063 174.49075271 91.90234375 170.96484375 C92.64191987 152.22810705 88.40196539 138.87616333 76.15234375 124.46484375 C76.15234375 123.80484375 76.15234375 123.14484375 76.15234375 122.46484375 C75.25128906 122.05298828 75.25128906 122.05298828 74.33203125 121.6328125 C72.15234375 120.46484375 72.15234375 120.46484375 69.27734375 117.77734375 C56.57417978 106.70279054 39.72936944 103.22765264 23.32080078 104.25341797 C7.22386542 105.82287823 -7.49191537 113.04097418 -18.26171875 125.1875 C-29.42247172 139.35307107 -34.78900254 154.7345175 -33.63671875 172.765625 C-32.69667502 180.0287931 -30.57320903 186.66006036 -27.96875 193.46875 C-27.09315115 195.80876505 -26.37743104 198.03026073 -25.84765625 200.46484375 C-33.79178624 207.83980589 -41.76676184 215.14244607 -50.0234375 222.16796875 C-51.21500435 223.18340532 -52.40640562 224.19903622 -53.59765625 225.21484375 C-54.49327271 225.97716309 -54.49327271 225.97716309 -55.40698242 226.75488281 C-60.09488905 230.7664248 -64.65117076 234.90478717 -69.11621094 239.16308594 C-72.63335399 242.46484375 -72.63335399 242.46484375 -74.84765625 242.46484375 C-74.94121934 216.35186993 -75.01169415 190.23892134 -75.05490494 164.12581348 C-75.07550436 152.00024108 -75.10357489 139.87477301 -75.14941406 127.74926758 C-75.189362 117.17706136 -75.2151081 106.60493073 -75.22401023 96.03265113 C-75.22921148 90.43797583 -75.24138172 84.84351672 -75.27057648 79.2489109 C-75.2978713 73.97530572 -75.30607291 68.70200431 -75.30008698 63.42833519 C-75.30118094 61.50032268 -75.30905048 59.57229924 -75.32447815 57.64434814 C-75.4585275 40.01730003 -72.73322331 25.8552675 -60.47265625 12.33984375 C-43.11501054 -4.30879071 -22.25747328 -3.78439723 0 0 Z " fill="#00E360" transform="translate(101.84765625,91.53515625)"/>
<path d="M0 0 C0.07025641 17.26415993 0.12306932 34.52827488 0.15543652 51.79254532 C0.17086839 59.80966233 0.19188702 67.82669021 0.22631836 75.84375 C0.25633397 82.836008 0.27560171 89.82820142 0.28226548 96.82052207 C0.28615727 100.51875799 0.29522553 104.21680925 0.31719017 107.91498566 C0.34158099 112.0557098 0.34196225 116.1961182 0.34057617 120.33691406 C0.35675491 122.15169754 0.35675491 122.15169754 0.3732605 124.00314331 C0.31729105 139.52902849 -3.83326924 152.36997254 -14.62890625 163.6796875 C-25.18359005 174.00832371 -37.54832971 179.11914237 -52.42631149 179.12863445 C-54.34736462 179.13347112 -54.34736462 179.13347112 -56.3072269 179.1384055 C-57.72115511 179.13693449 -59.13508322 179.13536678 -60.54901123 179.13371277 C-62.05674015 179.13558154 -63.56446858 179.13788251 -65.07219625 179.14057809 C-69.21231557 179.14669434 -73.35241469 179.1465627 -77.4925375 179.14538372 C-81.95892587 179.14517966 -86.42530776 179.15069892 -90.89169312 179.15544128 C-99.64129805 179.16374757 -108.39089626 179.16649612 -117.14050481 179.16705366 C-124.25316843 179.16752886 -131.36582982 179.16958378 -138.47849274 179.17275429 C-158.64592374 179.181561 -178.81334942 179.18617367 -198.98078236 179.18542381 C-200.06800309 179.18538386 -201.15522381 179.1853439 -202.27539062 179.18530273 C-203.36393952 179.18526185 -204.45248841 179.18522097 -205.57402363 179.18517885 C-223.2140464 179.18477244 -240.85404783 179.19434087 -258.49406442 179.2084411 C-276.60840296 179.22280617 -294.72273109 179.2297112 -312.83707547 179.22884732 C-323.00618723 179.22851539 -333.17527661 179.231261 -343.34438324 179.24202538 C-352.00300176 179.25113211 -360.66158776 179.25330421 -369.320209 179.24651595 C-373.73659343 179.24325156 -378.15291548 179.24319116 -382.56929398 179.2518692 C-386.61587413 179.2597387 -390.66234247 179.25829816 -394.70891991 179.24958507 C-396.16920542 179.24805107 -397.62949929 179.24986246 -399.08977494 179.25544515 C-415.36985605 179.31353923 -428.51680903 176.96802105 -441 166 C-441.6909375 165.42636719 -442.381875 164.85273438 -443.09375 164.26171875 C-449.97830865 158.0788555 -454.408149 149.67922388 -456.89453125 140.80859375 C-457 138 -457 138 -455.734375 135.98046875 C-455.07953125 135.38878906 -454.4246875 134.79710937 -453.75 134.1875 C-453.00492187 133.50429688 -452.25984375 132.82109375 -451.4921875 132.1171875 C-448.07271629 129.21224487 -444.59431901 126.38755166 -441.08984375 123.5859375 C-436.72105896 120.00873456 -432.66249887 116.07787461 -428.59521484 112.1652832 C-424.21077156 108 -424.21077156 108 -422 108 C-422 107.34 -422 106.68 -422 106 C-420.52931586 104.69136629 -418.99398682 103.4553144 -417.4375 102.25 C-411.79566444 97.74822447 -406.53704833 92.9306161 -401.30444336 87.96191406 C-390.80490508 78.01749794 -390.80490508 78.01749794 -387.125 77.9375 C-383.94881541 79.01740276 -381.16520679 80.39469109 -378.203125 81.94921875 C-363.22599064 89.09256829 -345.93072419 88.31359773 -330.5625 82.9375 C-322.68454423 79.74835164 -314.62157109 74.99506646 -308.87890625 68.66015625 C-308.25886719 68.11230469 -307.63882813 67.56445312 -307 67 C-302.46896476 67.56602171 -299.89905092 70.58204548 -296.75 73.625 C-295.59182243 74.71946643 -294.43296975 75.81321889 -293.2734375 76.90625 C-292.71366211 77.43734375 -292.15388672 77.9684375 -291.57714844 78.515625 C-289.54586246 80.42742357 -287.47179006 82.28543698 -285.375 84.125 C-284.48941406 84.90230469 -284.48941406 84.90230469 -283.5859375 85.6953125 C-281.82071737 87.19191367 -281.82071737 87.19191367 -279 89 C-278.82915029 92.0423238 -278.8211639 94.90467851 -278.9375 97.9375 C-279.22792768 114.6021471 -275.5092045 128.72039519 -265 142 C-264.50113281 142.68578125 -264.00226563 143.3715625 -263.48828125 144.078125 C-254.17198707 155.99922688 -238.6450629 162.68520915 -224 165 C-205.64838352 166.34873326 -188.45247245 161.17369664 -174.30859375 149.1796875 C-161.06143067 136.67221373 -154.28922219 120.55748125 -153.625 102.4375 C-153.93647636 92.92331311 -156.28178758 83.6770742 -160.328125 75.0859375 C-161.17637738 72.45240975 -161.16460583 71.52091632 -160 69 C-158.22678148 67.12146995 -156.49684939 65.44101954 -154.5625 63.75 C-154.05912109 63.29109375 -153.55574219 62.8321875 -153.03710938 62.359375 C-149.27280971 59 -149.27280971 59 -147 59 C-147 58.34 -147 57.68 -147 57 C-145.46804728 55.62787699 -143.87078919 54.3284554 -142.25 53.0625 C-135.89520275 47.98857866 -129.94157102 42.54754014 -124 37 C-120.59195608 38.08153721 -117.43253851 39.1916807 -114.3125 40.9375 C-100.54078563 47.92768835 -84.61593404 48.57844392 -70 44 C-54.309141 38.14997134 -41.28681863 27.64561541 -34.1875 12.25 C-32.73375928 8.85628447 -31.36368105 5.43079939 -30 2 C-24.43864122 1.1068803 -18.93621043 0.70404727 -13.3125 0.4375 C-12.05083008 0.37272461 -12.05083008 0.37272461 -10.76367188 0.30664062 C-7.16611198 0.12690528 -3.60410836 0 0 0 Z " fill="#00E360" transform="translate(485,235)"/>
<path d="M0 0 C6.56940152 3.97187665 10.78164654 10.67721785 13.375 17.75 C15.45187579 28.63196376 14.59224666 39.20686093 8.3046875 48.5078125 C3.01751685 54.99369391 -3.14668263 58.38222754 -11 61 C-22.93341681 61.82626382 -32.18846779 61.16888838 -41.8125 53.375 C-47.58100952 47.93320252 -51.69083061 40.51083207 -52.23828125 32.5234375 C-52.45245467 24.54306591 -52.44125802 17.92558672 -48 11 C-47.5875 10.30519531 -47.175 9.61039063 -46.75 8.89453125 C-36.23303474 -7.03030535 -15.72213919 -8.67842852 0 0 Z " fill="#00E360" transform="translate(149,231)"/>
<path d="M0 0 C6.66414839 5.43556238 11.30277679 11.89387868 12.84765625 20.4609375 C13.83403344 31.88773781 12.1753104 40.86974689 4.78515625 49.8359375 C-2.19386911 57.00882467 -10.15452098 60.17383488 -20.109375 60.5859375 C-29.8868303 60.1842962 -37.92996356 57.11786444 -45.15234375 50.4609375 C-53.06021084 41.17493589 -53.99001624 31.34299955 -53.15234375 19.4609375 C-51.13606626 9.89465743 -44.67442094 3.22361358 -37.15234375 -2.5390625 C-25.75502395 -9.27593979 -10.49566314 -7.50506584 0 0 Z " fill="#00E360" transform="translate(289.15234375,308.5390625)"/>
<path d="M0 0 C7.74345919 4.56253612 13.17926473 11.06047919 16.3125 19.5 C18.65629129 29.1111173 18.05908908 38.7488762 13.3125 47.5 C7.5871508 55.6624123 0.89887977 60.75259312 -8.75 63.3125 C-9.719375 63.374375 -10.68875 63.43625 -11.6875 63.5 C-12.35136719 63.55027344 -13.01523437 63.60054688 -13.69921875 63.65234375 C-22.20999663 64.02366914 -29.96337184 61.8167525 -36.6875 56.5 C-44.26476218 49.46397083 -48.66962231 43.23287795 -49.09448242 32.73168945 C-49.24938349 22.03855899 -47.03793048 14.13645513 -39.6171875 6.25390625 C-28.88268274 -3.502759 -13.31431817 -6.20211277 0 0 Z " fill="#00E360" transform="translate(411.6875,189.5)"/>
</svg>
